# AST/ASF file generated using VICON BodyLanguage
# -----------------------------------------------
:version 1.10
:name VICON
:units
  mass 1.0
  length 0.45
  angle deg
:documentation
   .ast/.asf automatically generated from VICON data using
   VICON BodyBuilder and BodyLanguage model FoxedUp or BRILLIANT.MOD
:root
   order TX TY TZ RX RY RZ
   axis XYZ
   position 0 0 0  
   orientation 0 0 0 
:bonedata
  begin
     id 1 
     name lhipjoint
     direction 0.561001 -0.76473 0.316963 
     length 2.4722 
     axis 0 0 0  XYZ
  end
  begin
     id 2 
     name lfemur
     direction 0.34202 -0.939693 0  
     length 7.59403  
     axis 0 0 20  XYZ
    dof rx ry rz
    limits (-160.0 20.0)
           (-70.0 70.0)
           (-60.0 70.0)
  end
  begin
     id 3 
     name ltibia
     direction 0.34202 -0.939693 0   
     length 7.89655   
     axis 0 0 20   XYZ
    dof rx
    limits (-10.0 170.0)
  end
  begin
     id 4 
     name lfoot
     direction 0.061296 -0.168409 0.98381   
     length 2.73287   
     axis -90 7.62852e-016 20   XYZ
    dof rx rz
    limits (-45.0 90.0)
           (-70.0 20.0)
  end
  begin
     id 5 
     name ltoes
     direction 1.53547e-011 -4.21984e-011 1   
     length 1.37057   
     axis -90 7.62852e-016 20   XYZ
    dof rx
    limits (-90.0 20.0)
  end
  begin
     id 6 
     name rhipjoint
     direction -0.559611 -0.765599 0.317323   
     length 2.46939  
     axis 0 0 0  XYZ 
  end
  begin
     id 7 
     name rfemur
     direction -0.34202 -0.939693 0   
     length 7.53712   
     axis 0 0 -20   XYZ
    dof rx ry rz
    limits (-160.0 20.0)
           (-70.0 70.0)
           (-70.0 60.0)
  end
  begin
     id 8 
     name rtibia
     direction -0.34202 -0.939693 0   
     length 8.12549   
     axis 0 0 -20   XYZ
    dof rx
    limits (-10.0 170.0)
 end
 begin
     id 9 
     name rfoot
     direction -0.066984 -0.184037 0.980634   
     length 2.67541  
     axis -90 -7.62852e-016 -20   XYZ
    dof rx rz
    limits (-45.0 90.0)
           (-20.0 70.0)
  end
  begin
     id 10 
     name rtoes
     direction -1.53549e-011 -4.21786e-011 1   
     length 1.34085   
     axis -90 -7.62852e-016 -20   XYZ
    dof rx
    limits (-90.0 20.0)
  end
  begin
     id 11 
     name lowerback
     direction -0.0522728 0.992594 -0.109658   
     length 2.05633   
     axis 0 0 0   XYZ
    dof rx ry rz
    limits (-20.0 45.0)
           (-30.0 30.0)
           (-30.0 30.0)
  end
  begin
     id 12 
     name upperback
     direction 0.00589338 0.999977 0.00335704   
     length 2.05845   
     axis 0 0 0   XYZ
    dof rx ry rz
    limits (-20.0 45.0)
           (-30.0 30.0)
           (-30.0 30.0)
  end
  begin
     id 13 
     name thorax
     direction 0.0292928 0.998059 0.0549487   
     length 2.09281   
     axis 0 0 0   XYZ
    dof rx ry rz
    limits (-20.0 45.0)
           (-30.0 30.0)
           (-30.0 30.0)
  end
  begin
     id 14 
     name lowerneck
     direction 0.0356368 0.980775 0.191858   
     length 1.84767   
     axis 0 0 0   XYZ
    dof rx ry rz
    limits (-20.0 45.0)
           (-30.0 30.0)
           (-30.0 30.0)
  end
  begin
     id 15 
     name upperneck
     direction -0.0227605 0.98931 -0.14404   
     length 1.89582   
     axis 0 0 0   XYZ
    dof rx ry rz
    limits (-20.0 45.0)
           (-30.0 30.0)
           (-30.0 30.0)
  end
  begin
     id 16
     name head
     direction -0.00932985 0.997511 -0.0698904  
     length 1.90213  
     axis 0 0 0   XYZ
    dof rx ry rz
    limits (-20.0 45.0)
           (-30.0 30.0)
           (-30.0 30.0)
  end
  begin
     id 17 
     name lclavicle
     direction 0.873442 0.479511 0.0846686  
     length 3.41193  
     axis 0 0 0   XYZ
    dof ry rz
    limits (-20.0 10.0)
           (0.0 20.0)
  end
  begin
     id 18 
     name lhumerus
     direction 1 -4.4897e-011 -5.62117e-018   
     length 5.59864   
     axis 180 -30 -90   XYZ
    dof rx ry rz
    limits (-60.0 90.0)
           (-90.0 90.0)
           (-90.0 90.0)
  end
  begin
     id 19
     name lradius
     direction 1 -4.48966e-011 -6.26295e-027   
     length 3.59542   
     axis 180 -30 -90   XYZ
    dof rx
    limits (-10.0 170.0)
  end
  begin
     id 20
     name lwrist
     direction 1 -4.48947e-011 -1.74096e-026   
     length 1.79771   
     axis 1.04567e-014 90 90   XYZ
    dof ry
    limits (-180.0 0.0)
 end
  begin
     id 21 
     name lhand
     direction 1 -4.49085e-011 -3.48469e-026   
     length 0.572014   
     axis 2.22196e-014 90 90   XYZ
    dof rx rz
    limits (-90.0 90.0)
           (-45.0 45.0)
  end
  begin
     id 22 
     name lfingers
     direction 1 -4.48884e-011 -6.96135e-026   
     length 0.461173   
     axis 4.44383e-014 90 90   XYZ
    dof rx
    limits (0.0 90.0)
  end
  begin
     id 23
     name lthumb
     direction 0.707107 -6.34976e-011 0.707107   
     length 0.662154   
     axis -90 45 -5.4397e-014   XYZ
    dof rx rz
    limits (-45.0 45.0)
           (-45.0 45.0)
  end
  begin
     id 24 
     name rclavicle
     direction -0.890242 0.443271 0.104786   
     length 3.46753  
     axis 0 0 0   XYZ 
    dof ry rz
    limits (-10.0 20.0)
           (-20.0 0.0)
  end
  begin
     id 25 
     name rhumerus
     direction -1 -4.48963e-011 -5.41723e-018  
     length 5.8094   
     axis 180 30 90   XYZ
    dof rx ry rz
    limits (-90.0 60.0)
           (-90.0 90.0)
           (-90.0 90.0)
  end
  begin
     id 26 
     name rradius
     direction -1 -4.48958e-011 -6.51059e-027   
     length 3.66953   
     axis 180 30 90   XYZ
    dof rx
    limits (-10.0 170.0)
  end
  begin
     id 27 
     name rwrist
     direction -1 -4.48975e-011 -1.74124e-026   
     length 1.83476   
     axis 1.04567e-014 -90 -90   XYZ
    dof ry
    limits (-180.0 0.0)
  end
  begin
     id 28
     name rhand
     direction -1 -4.49013e-011 -3.48326e-026   
     length 0.57843   
     axis 2.22196e-014 -90 -90   XYZ
    dof rx rz
    limits (-90.0 90.0)
           (-45.0 45.0)
  end
  begin
     id 29
     name rfingers
     direction -1 -4.49023e-011 -6.9669e-026   
     length 0.466345   
     axis 4.44383e-014 -90 -90   XYZ
    dof rx
    limits (0.0 90.0)
  end
  begin
     id 30
     name rthumb
     direction -0.707107 -6.34926e-011 0.707107   
     length 0.669581   
     axis -90 -45 5.4397e-014   XYZ
    dof rx rz
    limits (-45.0 45.0)
           (-45.0 45.0)
  end
:hierarchy
  begin
    root lhipjoint rhipjoint lowerback
    lhipjoint lfemur
    lfemur ltibia
    ltibia lfoot
    lfoot ltoes
    rhipjoint rfemur
    rfemur rtibia
    rtibia rfoot
    rfoot rtoes
    lowerback upperback
    upperback thorax
    thorax lowerneck lclavicle rclavicle
    lowerneck upperneck
    upperneck head
    lclavicle lhumerus
    lhumerus lradius
    lradius lwrist
    lwrist lhand lthumb
    lhand lfingers
    rclavicle rhumerus
    rhumerus rradius
    rradius rwrist
    rwrist rhand rthumb
    rhand rfingers
  end

#!OML:ASF H:\SkateBoarding\Project 1\Capture day 1\Session 1\Skater.ASF
:FULLY-SPECIFIED
:DEGREES
224
root 8.37949 19.3727 31.042 -3.5361 46.4596 -13.4257
lowerback 9.55327 0.40424 -7.32909
upperback -0.624094 -0.310566 -0.25478
thorax -6.00173 0.0809334 3.90583
lowerneck -8.61185 -0.701503 0.678366
upperneck 44.3699 5.65235 -11.3811
head 18.767 1.36461 -4.54453
rclavicle -1.86858e-014 7.95139e-015
rhumerus -20.9384 -4.31144 -92.4021
rradius 30.3152
rwrist -0.569743
rhand -23.5581 -6.60238
rfingers 7.12502
rthumb 2.90413 -36.5624
lclavicle -1.86858e-014 7.95139e-015
lhumerus -18.5752 -1.71602 80.6307
lradius 29.1887
lwrist 17.4197
lhand -20.7726 10.0848
lfingers 7.12502
lthumb 5.59386 39.9909
rfemur -22.0783 -1.19758 30.0189
rtibia 29.5496
rfoot -20.5077 8.8805
rtoes -3.54971
lfemur -21.6997 -23.6863 3.32089
ltibia 37.9913
lfoot -49.5204 21.6427
ltoes -19.0834
225
root 8.29302 19.3681 31.181 -3.49631 46.3933 -13.3173
lowerback 9.50591 0.41337 -7.2807
upperback -0.630796 -0.291074 -0.289108
thorax -5.9845 0.0879304 3.83907
lowerneck -8.53744 -0.771816 0.609374
upperneck 44.3598 5.61776 -11.5115
head 18.7434 1.3261 -4.6008
rclavicle -1.63003e-014 2.38542e-014
rhumerus -21.07 -4.58146 -92.225
rradius 30.2798
rwrist -0.510717
rhand -23.653 -6.40137
rfingers 7.12502
rthumb 2.81246 -36.3626
lclavicle -1.63003e-014 2.38542e-014
lhumerus -18.6791 -1.78424 80.7095
lradius 29.1669
lwrist 17.3944
lhand -20.737 10.1145
lfingers 7.12502
lthumb 5.62826 40.0197
rfemur -21.989 -1.19763 30.0209
rtibia 29.5937
rfoot -20.6718 8.99845
rtoes -3.49238
lfemur -21.5971 -23.6285 3.3015
ltibia 37.9506
lfoot -49.5124 21.4929
ltoes -19.1018
226
root 8.20698 19.3637 31.3188 -3.45033 46.3163 -13.2021
lowerback 9.45548 0.423321 -7.23121
upperback -0.637672 -0.270153 -0.323588
thorax -5.96583 0.0955521 3.77135
lowerneck -8.46279 -0.837095 0.547029
upperneck 44.3495 5.59011 -11.6443
head 18.7209 1.29131 -4.65836
rclavicle 9.10434e-014 -3.18055e-015
rhumerus -21.1958 -4.85699 -92.0414
rradius 30.2302
rwrist -0.441825
rhand -23.74 -6.21724
rfingers 7.12502
rthumb 2.72847 -36.1795
lclavicle 9.10434e-014 -3.18055e-015
lhumerus -18.7997 -1.85624 80.7923
lradius 29.1632
lwrist 17.3815
lhand -20.6899 10.1409
lfingers 7.12502
lthumb 5.67378 40.0449
rfemur -21.8981 -1.19071 30.0182
rtibia 29.6344
rfoot -20.8265 9.12453
rtoes -3.42859
lfemur -21.4924 -23.5568 3.27275
ltibia 37.9194
lfoot -49.5153 21.3471
ltoes -19.1159
227
root 8.12137 19.3592 31.4552 -3.39792 46.229 -13.0791
lowerback 9.40512 0.433088 -7.18086
upperback -0.645316 -0.249401 -0.356915
thorax -5.94793 0.103138 3.70446
lowerneck -8.39343 -0.894818 0.482555
upperneck 44.3455 5.57434 -11.7724
head 18.7054 1.26147 -4.71187
rclavicle -2.3059e-014 -4.77083e-015
rhumerus -21.3172 -5.13775 -91.8513
rradius 30.1682
rwrist -0.359824
rhand -23.817 -6.05645
rfingers 7.12502
rthumb 2.65407 -36.0197
lclavicle -2.3059e-014 -4.77083e-015
lhumerus -18.937 -1.92546 80.8771
lradius 29.1696
lwrist 17.3591
lhand -20.5988 10.1319
lfingers 7.12502
lthumb 5.76175 40.0335
rfemur -21.8058 -1.18165 30.0108
rtibia 29.6704
rfoot -20.9655 9.25603
rtoes -3.36274
lfemur -21.3858 -23.4749 3.23419
ltibia 37.8952
lfoot -49.5248 21.21
ltoes -19.1295
228
root 8.03628 19.3549 31.591 -3.35289 46.1491 -12.9535
lowerback 9.36045 0.436966 -7.13539
upperback -0.648984 -0.237125 -0.386157
thorax -5.92796 0.106631 3.64593
lowerneck -8.33021 -0.942816 0.422495
upperneck 44.3463 5.57387 -11.9004
head 18.6971 1.23853 -4.76433
rclavicle -2.82274e-014 -1.59028e-015
rhumerus -21.4341 -5.41236 -91.6553
rradius 30.0964
rwrist -0.272489
rhand -23.8833 -5.91921
rfingers 7.12502
rthumb 2.59005 -35.8832
lclavicle -2.82274e-014 -1.59028e-015
lhumerus -19.0888 -1.99672 80.9665
lradius 29.186
lwrist 17.3444
lhand -20.4955 10.1241
lfingers 7.12502
lthumb 5.86141 40.023
rfemur -21.6977 -1.17568 30.0017
rtibia 29.7011
rfoot -21.1066 9.38473
rtoes -3.30321
lfemur -21.2691 -23.3982 3.18814
ltibia 37.872
lfoot -49.5346 21.0755
ltoes -19.1469
229
root 7.95163 19.3509 31.7262 -3.31696 46.081 -12.829
lowerback 9.32279 0.428341 -7.09955
upperback -0.650312 -0.242502 -0.405137
thorax -5.90739 0.10186 3.60625
lowerneck -8.27111 -0.977065 0.363375
upperneck 44.3497 5.59818 -12.0343
head 18.6958 1.22509 -4.81638
rclavicle 3.49861e-014 1.43125e-014
rhumerus -21.5493 -5.65672 -91.455
rradius 30.0175
rwrist -0.181721
rhand -23.9419 -5.80452
rfingers 7.12502
rthumb 2.53346 -35.7692
lclavicle 3.49861e-014 1.43125e-014
lhumerus -19.2578 -2.03932 81.0608
lradius 29.2073
lwrist 17.3256
lhand -20.3814 10.1084
lfingers 7.12502
lthumb 5.97156 40.0043
rfemur -21.5758 -1.17574 29.993
rtibia 29.7265
rfoot -21.252 9.50961
rtoes -3.24039
lfemur -21.1446 -23.3295 3.13909
ltibia 37.8444
lfoot -49.5364 20.9522
ltoes -19.1828
230
root 7.86735 19.3471 31.8608 -3.29085 46.0277 -12.7062
lowerback 9.29267 0.409228 -7.07311
upperback -0.648083 -0.262787 -0.413646
thorax -5.88558 0.0901093 3.58509
lowerneck -8.21865 -0.999962 0.302498
upperneck 44.3553 5.64189 -12.1688
head 18.7009 1.21905 -4.86579
rclavicle -1.02573e-013 3.18055e-015
rhumerus -21.6629 -5.87854 -91.2463
rradius 29.9365
rwrist -0.0912389
rhand -23.9955 -5.71244
rfingers 7.12502
rthumb 2.48173 -35.6778
lclavicle -1.02573e-013 3.18055e-015
lhumerus -19.4418 -2.07102 81.1631
lradius 29.2361
lwrist 17.3157
lhand -20.2721 10.1037
lfingers 7.12502
lthumb 6.07716 39.9966
rfemur -21.4413 -1.18859 29.9854
rtibia 29.7481
rfoot -21.3994 9.62834
rtoes -3.19213
lfemur -21.0114 -23.2731 3.0889
ltibia 37.8074
lfoot -49.5218 20.841
ltoes -19.2387
231
root 7.78342 19.3435 31.9947 -3.27591 45.9903 -12.587
lowerback 9.27163 0.385896 -7.04915
upperback -0.643274 -0.289335 -0.417048
thorax -5.86546 0.0754456 3.57164
lowerneck -8.17086 -1.01879 0.2462
upperneck 44.3664 5.68963 -12.2981
head 18.7113 1.21609 -4.91349
rclavicle 5.52621e-014 -1.43125e-014
rhumerus -21.7798 -6.11002 -91.0263
rradius 29.8569
rwrist 0.011367
rhand -24.0284 -5.62711
rfingers 7.12502
rthumb 2.44992 -35.5928
lclavicle 5.52621e-014 -1.43125e-014
lhumerus -19.63 -2.09442 81.2757
lradius 29.2583
lwrist 17.2894
lhand -20.1577 10.0976
lfingers 7.12502
lthumb 6.18752 39.9873
rfemur -21.2969 -1.21725 29.98
rtibia 29.7688
rfoot -21.5463 9.74236
rtoes -3.147
lfemur -20.8713 -23.2292 3.03967
ltibia 37.7601
lfoot -49.4926 20.7371
ltoes -19.3065
232
root 7.69965 19.3402 32.1276 -3.26192 45.9643 -12.4688
lowerback 9.2523 0.360855 -7.02701
upperback -0.638489 -0.318269 -0.415831
thorax -5.84608 0.0597627 3.56441
lowerneck -8.12252 -1.03707 0.19522
upperneck 44.3767 5.73553 -12.4255
head 18.7208 1.21367 -4.96154
rclavicle 5.68524e-014 -1.74931e-014
rhumerus -21.9023 -6.34472 -90.7927
rradius 29.784
rwrist 0.111394
rhand -24.0487 -5.54723
rfingers 7.12502
rthumb 2.43028 -35.5131
lclavicle 5.68524e-014 -1.74931e-014
lhumerus -19.8239 -2.12752 81.4006
lradius 29.2792
lwrist 17.262
lhand -20.0459 10.0953
lfingers 7.12502
lthumb 6.29554 39.9818
rfemur -21.1561 -1.25832 29.975
rtibia 29.7937
rfoot -21.6885 9.85488
rtoes -3.0945
lfemur -20.7326 -23.1935 2.99367
ltibia 37.7034
lfoot -49.4548 20.6353
ltoes -19.377
233
root 7.61614 19.3371 32.2592 -3.25019 45.943 -12.3584
lowerback 9.23242 0.337584 -6.998
upperback -0.634334 -0.343878 -0.410506
thorax -5.82744 0.0455926 3.55717
lowerneck -8.07911 -1.05597 0.145781
upperneck 44.3899 5.77566 -12.542
head 18.7322 1.21042 -5.00574
rclavicle 2.16675e-014 -2.70347e-014
rhumerus -22.0303 -6.58516 -90.5441
rradius 29.7188
rwrist 0.211633
rhand -24.0616 -5.4686
rfingers 7.12502
rthumb 2.41787 -35.4346
lclavicle 2.16675e-014 -2.70347e-014
lhumerus -20.0177 -2.17562 81.5377
lradius 29.2942
lwrist 17.2326
lhand -19.9346 10.098
lfingers 7.12502
lthumb 6.40292 39.9813
rfemur -21.0263 -1.31421 29.9761
rtibia 29.8273
rfoot -21.8182 9.9693
rtoes -3.03469
lfemur -20.5978 -23.1612 2.95707
ltibia 37.6395
lfoot -49.4148 20.5278
ltoes -19.4398
234
root 7.53253 19.334 32.3894 -3.22981 45.917 -12.2504
lowerback 9.20717 0.317968 -6.96726
upperback -0.633098 -0.363922 -0.400635
thorax -5.80948 0.0342526 3.55292
lowerneck -8.03778 -1.07537 0.0952237
upperneck 44.4014 5.81057 -12.6495
head 18.7416 1.20591 -5.04585
rclavicle 6.22196e-014 -9.54166e-015
rhumerus -22.1641 -6.82045 -90.2827
rradius 29.6626
rwrist 0.306849
rhand -24.0679 -5.38958
rfingers 7.12502
rthumb 2.41174 -35.3557
lclavicle 6.22196e-014 -9.54166e-015
lhumerus -20.2086 -2.2234 81.6861
lradius 29.2989
lwrist 17.1843
lhand -19.8154 10.0908
lfingers 7.12502
lthumb 6.51803 39.9705
rfemur -20.92 -1.3747 29.9799
rtibia 29.8742
rfoot -21.932 10.0818
rtoes -2.96726
lfemur -20.4731 -23.1216 2.92919
ltibia 37.571
lfoot -49.3755 20.4097
ltoes -19.4942
235
root 7.44925 19.3309 32.5175 -3.20287 45.8815 -12.1446
lowerback 9.17884 0.302154 -6.9271
upperback -0.633988 -0.377638 -0.388498
thorax -5.79277 0.0258445 3.54485
lowerneck -7.99866 -1.09406 0.0491363
upperneck 44.4088 5.84133 -12.751
head 18.748 1.20114 -5.08404
rclavicle -7.95139e-015 1.90833e-014
rhumerus -22.3028 -7.05102 -90.0118
rradius 29.6131
rwrist 0.396522
rhand -24.0804 -5.30488
rfingers 7.12502
rthumb 2.39967 -35.2711
lclavicle -7.95139e-015 1.90833e-014
lhumerus -20.3952 -2.26903 81.8378
lradius 29.2915
lwrist 17.0976
lhand -19.6526 10.0622
lfingers 7.12502
lthumb 6.67516 39.937
rfemur -20.8361 -1.44137 29.9846
rtibia 29.9365
rfoot -22.0237 10.1984
rtoes -2.88502
lfemur -20.3558 -23.0772 2.90668
ltibia 37.5008
lfoot -49.3442 20.2809
ltoes -19.5378
